# 3ds Max Wavefront OBJ Exporter v0.97b - (c)2007 guruware
# 创建的文件:14.01.2017 21:37:21

mtllib arrow.mtl

#
# object NGon001
#

v  52.4200 -0.0000 0.0184
v  53.9402 -0.0000 -1.0882
v  53.9402 3.0000 -1.0882
v  52.4200 3.0000 0.0184
v  54.9537 -0.0000 -2.3254
v  54.9537 3.0000 -2.3254
v  55.4604 -0.0000 -3.6409
v  55.4604 3.0000 -3.6409
v  55.4604 0.0000 -4.9825
v  55.4604 3.0000 -4.9825
v  54.9537 0.0000 -6.2980
v  54.9537 3.0000 -6.2980
v  53.9402 0.0000 -7.5352
v  53.9402 3.0000 -7.5352
v  52.4200 0.0000 -8.6418
v  52.4200 3.0000 -8.6418
v  -22.5800 0.0000 -51.9431
v  -22.5800 3.0000 -51.9431
v  -24.2985 0.0000 -52.7063
v  -24.2985 3.0000 -52.7063
v  -25.8767 0.0000 -52.9655
v  -25.8767 3.0000 -52.9655
v  -27.2693 0.0000 -52.7466
v  -27.2693 3.0000 -52.7466
v  -28.4312 0.0000 -52.0758
v  -28.4312 3.0000 -52.0758
v  -29.3171 0.0000 -50.9792
v  -29.3171 3.0000 -50.9792
v  -29.8818 0.0000 -49.4829
v  -29.8818 3.0000 -49.4829
v  -30.0800 0.0000 -47.6130
v  -30.0800 3.0000 -47.6130
v  -30.0800 -0.0000 38.9896
v  -30.0800 3.0000 38.9896
v  -29.8818 -0.0000 40.8594
v  -29.8818 3.0000 40.8594
v  -29.3171 -0.0000 42.3557
v  -29.3171 3.0000 42.3557
v  -28.4312 -0.0000 43.4523
v  -28.4312 3.0000 43.4523
v  -27.2693 -0.0000 44.1231
v  -27.2693 3.0000 44.1231
v  -25.8767 -0.0000 44.3420
v  -25.8767 3.0000 44.3420
v  -24.2985 -0.0000 44.0829
v  -24.2985 3.0000 44.0829
v  -22.5800 -0.0000 43.3197
v  -22.5800 3.0000 43.3197
# 48 vertices

vn 0.5450 -0.0000 0.8384
vn 0.6866 -0.0000 0.7270
vn 0.8643 -0.0000 0.5030
vn 0.9831 -0.0000 0.1828
vn 0.9831 0.0000 -0.1828
vn 0.8643 0.0000 -0.5030
vn 0.6866 0.0000 -0.7270
vn 0.5450 0.0000 -0.8384
vn 0.4536 0.0000 -0.8912
vn 0.2863 0.0000 -0.9581
vn 0.0034 0.0000 -1.0000
vn -0.3333 0.0000 -0.9428
vn -0.6499 0.0000 -0.7600
vn -0.8677 0.0000 -0.4970
vn -0.9729 0.0000 -0.2311
vn -0.9986 0.0000 -0.0528
vn -0.9986 -0.0000 0.0528
vn -0.9729 -0.0000 0.2311
vn -0.8677 -0.0000 0.4970
vn -0.6499 -0.0000 0.7600
vn -0.3333 -0.0000 0.9428
vn 0.0034 -0.0000 1.0000
vn 0.2863 -0.0000 0.9581
vn 0.4536 -0.0000 0.8912
vn 0.0000 -1.0000 -0.0000
vn 0.0000 1.0000 0.0000
# 26 vertex normals

g NGon001
usemtl wire_160244012
s 1
f 1//1 2//2 3//2 4//1 
s 3
f 2//2 5//3 6//3 3//2 
s 2
f 5//3 7//4 8//4 6//3 
f 7//4 9//5 10//5 8//4 
f 9//5 11//6 12//6 10//5 
f 11//6 13//7 14//7 12//6 
f 13//7 15//8 16//8 14//7 
f 15//8 17//9 18//9 16//8 
f 17//9 19//10 20//10 18//9 
f 19//10 21//11 22//11 20//10 
f 21//11 23//12 24//12 22//11 
f 23//12 25//13 26//13 24//12 
f 25//13 27//14 28//14 26//13 
f 27//14 29//15 30//15 28//14 
f 29//15 31//16 32//16 30//15 
f 31//16 33//17 34//17 32//16 
f 33//17 35//18 36//18 34//17 
f 35//18 37//19 38//19 36//18 
f 37//19 39//20 40//20 38//19 
f 39//20 41//21 42//21 40//20 
f 41//21 43//22 44//22 42//21 
f 43//22 45//23 46//23 44//22 
f 45//23 47//24 48//24 46//23 
s 3
f 47//24 1//1 4//1 48//24 
s 16
f 39//25 37//25 43//25 41//25 
f 35//25 45//25 43//25 37//25 
f 33//25 47//25 45//25 35//25 
f 33//25 31//25 1//25 47//25 
f 31//25 5//25 2//25 1//25 
f 31//25 9//25 7//25 5//25 
f 31//25 13//25 11//25 9//25 
f 31//25 17//25 15//25 13//25 
f 31//25 29//25 19//25 17//25 
f 27//25 21//25 19//25 29//25 
f 27//25 25//25 23//25 21//25 
f 40//26 42//26 44//26 38//26 
f 36//26 38//26 44//26 46//26 
f 34//26 36//26 46//26 48//26 
f 34//26 48//26 4//26 32//26 
f 32//26 4//26 3//26 6//26 
f 32//26 6//26 8//26 10//26 
f 32//26 10//26 12//26 14//26 
f 32//26 14//26 16//26 18//26 
f 32//26 18//26 20//26 30//26 
f 28//26 30//26 20//26 22//26 
f 28//26 22//26 24//26 26//26 
# 46 polygons

